{
  "asset": {
    "generator": "Khronos glTF Blender I/O v4.0.44",
    "version": "2.0"
  },
  "scene": 0,
  "scenes": [
    {
      "name": "Scene",
      "nodes": [
        0
      ]
    }
  ],
  "nodes": [
    {
      "mesh": 0,
      "name": "Plane.001"
    }
  ],
  "materials": [
    {
      "doubleSided": true,
      "name": "gold001",
      "pbrMetallicRoughness": {
        "baseColorFactor": [
          0.804996132850647,
          0.637744665145874,
          0.26564809679985046,
          1
        ],
        "metallicFactor": 500,
        "roughnessFactor": 0.30519479513168335
      }
    }
  ],
  "meshes": [
    {
      "name": "Plane.001",
      "primitives": [
        {
          "attributes": {
            "POSITION": 0,
            "NORMAL": 1,
            "TEXCOORD_0": 2
          },
          "indices": 3,
          "material": 0
        }
      ]
    }
  ],
  "accessors": [
    {
      "bufferView": 0,
      "componentType": 5126,
      "count": 23336,
      "max": [
        1,
        0.3180077373981476,
        1
      ],
      "min": [
        -1,
        0,
        -1
      ],
      "type": "VEC3"
    },
    {
      "bufferView": 1,
      "componentType": 5126,
      "count": 23336,
      "type": "VEC3"
    },
    {
      "bufferView": 2,
      "componentType": 5126,
      "count": 23336,
      "type": "VEC2"
    },
    {
      "bufferView": 3,
      "componentType": 5123,
      "count": 48036,
      "type": "SCALAR"
    }
  ],
  "bufferViews": [
    {
      "buffer": 0,
      "byteLength": 280032,
      "byteOffset": 0,
      "target": 34962
    },
    {
      "buffer": 0,
      "byteLength": 280032,
      "byteOffset": 280032,
      "target": 34962
    },
    {
      "buffer": 0,
      "byteLength": 186688,
      "byteOffset": 560064,
      "target": 34962
    },
    {
      "buffer": 0,
      "byteLength": 96072,
      "byteOffset": 746752,
      "target": 34963
    }
  ],
  "buffers": [
    {
      "uri": "Tile_data.bin",
      "byteLength": 842824
    }
  ]
}